<?xml version="1.0" encoding="UTF-8"?>
<svg version="1.1" xmlns="http://www.w3.org/2000/svg" width="1024" height="1024">
<path d="M0 0 C1.0434202 0.00308298 1.0434202 0.00308298 2.1079196 0.00622824 C2.84389678 0.0044752 3.57987396 0.00272216 4.33815348 0.000916 C6.8358496 -0.00378311 9.33348849 -0.00126852 11.83118716 0.00114992 C13.62746153 -0.00071611 15.4237355 -0.00301597 17.22000882 -0.0057154 C22.18093569 -0.01186597 27.14184579 -0.01169599 32.1027756 -0.01052102 C37.44383348 -0.01031782 42.78488585 -0.01582817 48.12594119 -0.02057859 C58.60144828 -0.02890455 69.07694974 -0.03163435 79.55245986 -0.03219097 C88.06732171 -0.03266541 96.58218169 -0.03471652 105.09704295 -0.0378916 C129.22297903 -0.04670505 153.34891065 -0.05131013 177.47484835 -0.05056112 C178.77697278 -0.05052117 180.07909721 -0.05048121 181.42067996 -0.05044004 C182.72439001 -0.05039916 184.02810006 -0.05035828 185.37131647 -0.05031616 C206.48741358 -0.04990995 227.60349284 -0.0594715 248.71958479 -0.07357841 C270.38652377 -0.08793932 292.05345405 -0.09484869 313.72039792 -0.09398463 C325.89049305 -0.09365247 338.06056949 -0.09640789 350.23066035 -0.10716268 C360.59668591 -0.11626414 370.96268431 -0.118446 381.32871213 -0.11165326 C386.61794791 -0.1083857 391.90713157 -0.10833983 397.19636241 -0.11700651 C402.04066809 -0.12486242 406.88488027 -0.1234493 411.72918365 -0.11472238 C413.47965698 -0.11318534 415.23013726 -0.11501123 416.98060241 -0.12058245 C427.45347054 -0.15170057 437.61212908 -0.16707625 447.37551394 4.13486269 C450.10369606 5.32466614 452.6324347 6.25039127 455.52395144 7.00205019 C459.63341751 8.27256742 462.95683636 10.06253834 466.62551394 12.25986269 C467.26166628 12.63240175 467.89781863 13.00494082 468.55324832 13.38876894 C470.10225283 14.29720768 471.64573285 15.21505566 473.18801394 16.13486269 C473.18801394 16.79486269 473.18801394 17.45486269 473.18801394 18.13486269 C473.90988894 18.38236269 474.63176394 18.62986269 475.37551394 18.88486269 C478.46407976 20.25755861 480.69812812 21.85839565 483.18801394 24.13486269 C483.18801394 24.79486269 483.18801394 25.45486269 483.18801394 26.13486269 C484.17801394 26.46486269 485.16801394 26.79486269 486.18801394 27.13486269 C486.18801394 27.79486269 486.18801394 28.45486269 486.18801394 29.13486269 C487.17801394 29.46486269 488.16801394 29.79486269 489.18801394 30.13486269 C489.18801394 30.79486269 489.18801394 31.45486269 489.18801394 32.13486269 C489.84801394 32.13486269 490.50801394 32.13486269 491.18801394 32.13486269 C507.28002276 49.09809492 513.66739142 71.36918568 513.58674136 94.10083559 C513.59219208 95.67771214 513.59894829 97.25458461 513.60688326 98.83145061 C513.62479542 103.13152008 513.62436525 107.43141585 513.62075379 111.73151377 C513.62012691 116.38384919 513.6367812 121.03612785 513.65127078 125.6884363 C513.6740262 133.74758498 513.68593758 141.80669054 513.69040003 149.86586931 C513.69689158 161.56471148 513.71989007 173.26347671 513.74674333 184.96228774 C513.79000762 204.00743203 513.81996332 223.05257307 513.84157839 242.09775332 C513.86247499 260.48546546 513.8896924 278.87314996 513.92556277 297.26083925 C513.92886101 298.95319857 513.92886101 298.95319857 513.93222588 300.67974697 C513.94330609 306.34634601 513.95450245 312.0129448 513.96574238 317.67954352 C514.03462583 352.50744973 514.09476322 387.33536444 514.14018562 422.16330937 C514.14372108 424.85543972 514.14735445 427.54756992 514.15101328 430.23970011 C514.15330885 431.94969346 514.15559713 433.65968682 514.15787783 435.3696802 C514.15899972 436.20489379 514.1601216 437.04010739 514.16127748 437.90063049 C514.16660404 442.00590854 514.17101038 446.11118424 514.17353275 450.21646503 C514.17457245 451.83814553 514.17562745 453.45982603 514.17669764 455.08150652 C514.17721598 455.88662161 514.17773432 456.6917367 514.17826837 457.52124922 C514.18291246 462.92212615 514.1972341 468.32291738 514.21612191 473.72376249 C514.22896792 477.61119312 514.23768811 481.49862771 514.24585361 485.38607068 C514.25071062 487.23396546 514.25735404 489.08185661 514.26599687 490.92973755 C514.4027782 520.65333927 514.4027782 520.65333927 511.18801394 528.13486269 C510.80670655 530.4608378 510.4634114 532.79398427 510.18801394 535.13486269 C509.52801394 535.13486269 508.86801394 535.13486269 508.18801394 535.13486269 C508.08488894 536.14548769 507.98176394 537.15611269 507.87551394 538.19736269 C507.15096628 542.34704478 505.96532128 545.34842532 504.18801394 549.13486269 C503.52801394 549.13486269 502.86801394 549.13486269 502.18801394 549.13486269 C502.18801394 550.12486269 502.18801394 551.11486269 502.18801394 552.13486269 C501.52801394 552.13486269 500.86801394 552.13486269 500.18801394 552.13486269 C499.85801394 553.78486269 499.52801394 555.43486269 499.18801394 557.13486269 C498.52801394 557.13486269 497.86801394 557.13486269 497.18801394 557.13486269 C496.91859988 557.87220644 496.64918582 558.60955019 496.37160769 559.36923769 C492.5130295 568.38532139 484.82588333 574.37240979 477.18801394 580.13486269 C476.27922488 580.82322207 475.37043582 581.51158144 474.43410769 582.22080019 C470.32087921 585.22449908 467.31346093 587.41041789 462.18801394 588.13486269 C462.18801394 588.79486269 462.18801394 589.45486269 462.18801394 590.13486269 C453.12418433 593.77216574 444.41364635 596.80089499 434.78567019 598.59189394 C432.2700507 598.87033471 432.2700507 598.87033471 431.18801394 600.13486269 C428.89784674 600.23487631 426.60451675 600.26226742 424.31216708 600.26349714 C423.58095542 600.26525018 422.84974377 600.26700322 422.09637418 600.26880938 C419.61489885 600.27350842 417.13348111 600.27099392 414.6520032 600.26857546 C412.86739053 600.27044149 411.08277827 600.27274136 409.29816666 600.27544078 C404.36951387 600.28159129 399.44087796 600.28142138 394.5122222 600.28024641 C389.20594859 600.28004321 383.89968051 600.28555354 378.59340945 600.29030398 C368.18641775 600.29862976 357.77943172 600.30135972 347.37243697 600.30191635 C338.9138213 600.30239077 330.45520751 600.3044418 321.99659243 600.30761698 C298.03160327 600.31643018 274.06661859 600.32103552 250.1016278 600.3202865 C248.80820163 600.32024655 247.51477546 600.32020659 246.18215457 600.32016543 C244.88715405 600.32012454 243.59215353 600.32008366 242.25791058 600.32004154 C221.28016817 600.31963528 200.30244373 600.32919818 179.32470652 600.34330379 C157.80128393 600.3576624 136.27787011 600.3645742 114.7544426 600.36371002 C102.66430393 600.36337778 90.57418407 600.36613617 78.48404971 600.37688807 C68.18679937 600.38598648 57.88957637 600.38817388 47.59232375 600.38137864 C42.33764128 600.37810961 37.08301127 600.37807051 31.82833377 600.38673189 C27.01677097 600.39458126 22.20530238 600.39318141 17.39374194 600.38444776 C15.65405348 600.38290928 13.91435805 600.38474202 12.17467782 600.39030784 C3.95130037 600.41487206 -3.84054852 600.43559017 -11.81198606 598.13486269 C-13.07011106 597.78423769 -14.32823606 597.43361269 -15.62448606 597.07236269 C-16.67636106 596.76298769 -17.72823606 596.45361269 -18.81198606 596.13486269 C-20.1432872 595.79350342 -21.47556754 595.45560314 -22.81198606 595.13486269 C-22.81198606 594.47486269 -22.81198606 593.81486269 -22.81198606 593.13486269 C-23.76073606 593.09361269 -24.70948606 593.05236269 -25.68698606 593.00986269 C-31.11861593 592.23235116 -35.31205555 589.09588567 -39.81198606 586.13486269 C-40.6253845 585.61021425 -41.43878293 585.08556582 -42.27682981 584.54501894 C-50.33366259 579.27657421 -50.33366259 579.27657421 -53.81198606 576.13486269 C-53.81198606 575.47486269 -53.81198606 574.81486269 -53.81198606 574.13486269 C-54.80198606 573.80486269 -55.79198606 573.47486269 -56.81198606 573.13486269 C-56.81198606 572.47486269 -56.81198606 571.81486269 -56.81198606 571.13486269 C-57.80198606 570.80486269 -58.79198606 570.47486269 -59.81198606 570.13486269 C-59.81198606 569.47486269 -59.81198606 568.81486269 -59.81198606 568.13486269 C-60.47198606 568.13486269 -61.13198606 568.13486269 -61.81198606 568.13486269 C-61.81198606 567.47486269 -61.81198606 566.81486269 -61.81198606 566.13486269 C-62.80198606 565.80486269 -63.79198606 565.47486269 -64.81198606 565.13486269 C-74.57986631 554.19908372 -83.98285087 537.33167061 -84.06198606 522.32236269 C-83.97948606 521.27048769 -83.89698606 520.21861269 -83.81198606 519.13486269 C-84.47198606 519.13486269 -85.13198606 519.13486269 -85.81198606 519.13486269 C-85.83484991 463.60806229 -85.852483 408.08126235 -85.86305139 352.55445817 C-85.86430217 346.00647126 -85.86559649 339.45848436 -85.8669177 332.91049746 C-85.86718001 331.60685173 -85.86744232 330.303206 -85.86771258 328.96005585 C-85.87206984 307.821655 -85.87995769 286.68325685 -85.88913886 265.5448576 C-85.89847385 243.87234511 -85.90404134 222.19983405 -85.90607455 200.52731964 C-85.9074501 187.14259874 -85.91180241 173.75788549 -85.91990253 160.37316694 C-85.92516808 151.20822213 -85.92679079 142.04328131 -85.92548744 132.8783351 C-85.92484376 127.58213407 -85.92586492 122.28594646 -85.93119153 116.98974779 C-85.93602424 112.14959881 -85.93632557 107.30947238 -85.93288495 102.46932241 C-85.93245913 100.710231 -85.93375595 98.95113824 -85.93686924 97.19204954 C-85.94083114 94.81703274 -85.93875077 92.44209938 -85.93503389 90.0670841 C-85.9376609 89.37021651 -85.94028791 88.67334891 -85.94299453 87.95536411 C-85.92613186 83.24900849 -85.92613186 83.24900849 -84.81198606 82.13486269 C-84.4125543 79.61290302 -84.06118758 77.10522613 -83.74948606 74.57236269 C-83.65860715 73.86144472 -83.56772825 73.15052675 -83.47409543 72.41806582 C-83.24959103 70.65747867 -83.03030209 68.89622792 -82.81198606 67.13486269 C-82.15198606 67.13486269 -81.49198606 67.13486269 -80.81198606 67.13486269 C-80.71272825 66.12165957 -80.61347043 65.10845644 -80.51120481 64.06455019 C-78.87781503 54.88471714 -72.87689275 44.23249343 -66.81198606 37.13486269 C-66.15198606 37.13486269 -65.49198606 37.13486269 -64.81198606 37.13486269 C-64.48198606 36.14486269 -64.15198606 35.15486269 -63.81198606 34.13486269 C-63.15198606 34.13486269 -62.49198606 34.13486269 -61.81198606 34.13486269 C-61.81198606 33.14486269 -61.81198606 32.15486269 -61.81198606 31.13486269 C-61.15198606 31.13486269 -60.49198606 31.13486269 -59.81198606 31.13486269 C-59.81198606 30.47486269 -59.81198606 29.81486269 -59.81198606 29.13486269 C-58.43698606 27.50986269 -58.43698606 27.50986269 -56.81198606 26.13486269 C-56.15198606 26.13486269 -55.49198606 26.13486269 -54.81198606 26.13486269 C-54.81198606 25.47486269 -54.81198606 24.81486269 -54.81198606 24.13486269 C-53.49198606 23.80486269 -52.17198606 23.47486269 -50.81198606 23.13486269 C-50.81198606 22.47486269 -50.81198606 21.81486269 -50.81198606 21.13486269 C-50.15198606 21.13486269 -49.49198606 21.13486269 -48.81198606 21.13486269 C-48.81198606 20.47486269 -48.81198606 19.81486269 -48.81198606 19.13486269 C-46.65306908 17.6037159 -44.52203592 16.22971029 -42.24948606 14.88486269 C-41.57997922 14.48662295 -40.91047239 14.0883832 -40.22067747 13.67807558 C-22.61590341 3.48702726 -22.61590341 3.48702726 -13.81198606 4.13486269 C-13.81198606 3.47486269 -13.81198606 2.81486269 -13.81198606 2.13486269 C-11.76120481 1.90699811 -9.71042356 1.67913352 -7.65964231 1.45126894 C-4.883116 0.97579615 -3.1438657 0.01385789 0 0 Z " fill="#010101" transform="translate(297.8119860589504,211.86513730883598)"/>
<path d="M0 0 C24.09 0 48.18 0 73 0 C73.33 52.47 73.66 104.94 74 159 C75.65 153.39 77.3 147.78 79 142 C80.40332352 137.69488886 81.84248654 133.40962043 83.31640625 129.12890625 C85.14555363 123.74355606 86.79890581 118.32447631 88.3828125 112.86328125 C90.84374701 104.39978109 93.56523335 96.0406625 96.375 87.6875 C96.88778989 86.15403018 97.40039831 84.62049967 97.9128418 83.08691406 C100.8594785 74.28519329 103.85222006 65.49984353 106.87109375 56.72265625 C107.53272692 54.79533292 108.19434803 52.86800545 108.85595703 50.94067383 C110.11717603 47.26758508 111.38598541 43.59724945 112.65966797 39.9284668 C117.21214419 26.69338821 121.06843548 13.4796498 125 0 C149.42 0 173.84 0 199 0 C197.28284923 6.29621949 195.62443032 12.37419615 193.546875 18.51953125 C193.32578568 19.17732574 193.10469635 19.83512024 192.87690735 20.5128479 C192.40988059 21.90181208 191.94154945 23.29033832 191.47195435 24.67843628 C190.23916095 28.32251665 189.01555537 31.96967207 187.79296875 35.6171875 C187.55134506 36.33770798 187.30972137 37.05822845 187.06077576 37.80058289 C184.71028575 44.82959806 182.46149821 51.88988034 180.28222656 58.97387695 C179.06051536 62.8941326 177.74112135 66.71476557 176.17578125 70.51171875 C173.12133877 78.00000591 170.66706707 85.70170524 168.125 93.375 C167.85854675 94.17546753 167.59209351 94.97593506 167.31756592 95.80065918 C164.0265268 105.68985209 160.84770242 115.5943778 157.94140625 125.60449219 C156.35092377 131.01824986 154.44809355 136.2465984 152.39135742 141.49829102 C149.48375427 149.07536748 147.24307083 156.86068468 144.89990234 164.6262207 C142.87510601 171.29048412 140.68340279 177.76470904 138.07421875 184.22265625 C136.52113332 188.23808803 135.33257163 192.34536982 134.1015625 196.46875 C132.81269686 200.60043276 131.38964549 204.67342025 129.9375 208.75 C129.67606201 209.48484619 129.41462402 210.21969238 129.14526367 210.97680664 C128.64675634 212.37672448 128.1479909 213.77655044 127.64892578 215.17626953 C125.55968679 221.04783285 123.73152522 226.93158684 122.0625 232.9375 C120.6854021 237.8171035 119.0956303 242.43660051 117.13671875 247.10546875 C114.7345144 253.22242209 112.78120859 259.50896731 110.73950195 265.75366211 C109.97638923 268.07172094 109.19520511 270.38327527 108.4140625 272.6953125 C107.0008135 276.92679219 105.84987322 281.19795402 104.74609375 285.51953125 C104 288 104 288 102 292 C68.34 292 34.68 292 0 292 C0 257.02 0 222.04 0 186 C-1.98 186 -3.96 186 -6 186 C-7.85582351 183.90266521 -9.10858702 182.13278721 -10.5 179.75 C-11.36420741 178.3653231 -12.23156839 176.98261095 -13.1015625 175.6015625 C-13.79620605 174.48442871 -13.79620605 174.48442871 -14.50488281 173.34472656 C-17.16116207 169.17900056 -20.0251909 165.15966619 -22.875 161.125 C-23.47175537 160.27599121 -24.06851074 159.42698242 -24.68334961 158.55224609 C-25.87990285 156.84991321 -27.07740218 155.14824489 -28.27587891 153.44726562 C-29.88792766 151.15907862 -31.49707566 148.86888236 -33.10546875 146.578125 C-34.09083551 145.17686506 -35.07650707 143.7758194 -36.0625 142.375 C-36.53977539 141.69679199 -37.01705078 141.01858398 -37.50878906 140.31982422 C-40.16262427 136.56155927 -42.84795157 132.8290221 -45.56640625 129.1171875 C-46.15993896 128.30459473 -46.75347168 127.49200195 -47.36499023 126.65478516 C-48.50945456 125.09104904 -49.65846975 123.53062997 -50.81274414 121.97412109 C-51.58992798 120.91185303 -51.58992798 120.91185303 -52.3828125 119.828125 C-52.84059082 119.2084082 -53.29836914 118.58869141 -53.77001953 117.95019531 C-55 116 -55 116 -57 111 C-38.19 111 -19.38 111 0 111 C0 74.37 0 37.74 0 0 Z " fill="#ADD041" transform="translate(436,366)"/>
<path d="M0 0 C24.09 0 48.18 0 73 0 C72.96777344 7.94578125 72.93554688 15.8915625 72.90234375 24.078125 C72.9019622 29.1277133 72.90423458 34.17702365 72.91601562 39.2265625 C72.9344429 47.2324433 72.9433232 55.23737842 72.89379883 63.24316406 C72.85446322 69.70159132 72.85923827 76.1586494 72.89392281 82.61708832 C72.89949908 85.07450583 72.88948331 87.53201232 72.86323357 89.98929596 C72.35140926 107.40829485 72.35140926 107.40829485 80.78335571 121.86935425 C81.88059464 122.9240239 81.88059464 122.9240239 83 124 C84.01261079 125.36818348 84.99933561 126.75684936 85.93359375 128.1796875 C86.55657349 129.09536499 86.55657349 129.09536499 87.19213867 130.02954102 C87.60310791 130.63854248 88.01407715 131.24754395 88.4375 131.875 C92.18106497 137.36987166 95.98541788 142.80870927 99.86987305 148.20507812 C104.76019171 155.02194378 109.52313686 161.92800988 114.29174805 168.83032227 C117.73415698 173.79956836 121.22137127 178.6940063 124.95996094 183.44580078 C126 185 126 185 126 187 C108.51 187 91.02 187 73 187 C73 221.65 73 256.3 73 292 C48.91 292 24.82 292 0 292 C0 195.64 0 99.28 0 0 Z " fill="#004581" transform="translate(292,366)"/>
<path d="M0 0 C2.25417643 2.25417643 2.73674136 3.70767769 3.734375 6.70703125 C4.05768799 7.67431152 4.38100098 8.6415918 4.71411133 9.63818359 C5.05595459 10.68570801 5.39779785 11.73323242 5.75 12.8125 C6.10924561 13.90127441 6.46849121 14.99004883 6.83862305 16.11181641 C8.97772048 22.66217631 10.97231748 29.23513148 12.8125 35.875 C16.44208872 48.96845275 20.74720616 61.84735938 24.96536255 74.75993347 C28.06280372 84.24443596 31.0969127 93.74917864 34.12548828 103.25585938 C34.70111541 105.06212653 35.27759034 106.86812376 35.85498047 108.67382812 C38.29892484 116.31817503 40.73630587 123.95100643 42.875 131.6875 C44.68009842 138.13751696 46.79755588 144.46649277 48.9375 150.8125 C51.51315002 158.45091946 53.97928937 166.09516916 56.20898438 173.84130859 C59.29110601 184.5333844 62.67779123 195.1348536 66.25268555 205.671875 C69.05797903 213.94203783 71.53871494 222.2651146 73.890625 230.67529297 C75.35350335 235.86562384 77.00161732 240.8975213 78.93359375 245.93359375 C81.35023437 252.88254206 83.20530627 260.02456277 85.17211914 267.11157227 C86.4069214 271.41972489 87.71221604 275.70738679 89 280 C63.92 280 38.84 280 13 280 C7.28951983 264.01065552 7.28951983 264.01065552 5.5 257.1875 C5.08986812 255.66370486 4.67837227 254.14027629 4.265625 252.6171875 C4.06001953 251.85760742 3.85441406 251.09802734 3.64257812 250.31542969 C2.38070328 245.76846121 1.00396341 241.25337007 -0.38867188 236.74487305 C-1.69349436 232.41810307 -2.34932822 228.55470244 -3 224 C-26.43 224 -49.86 224 -74 224 C-72.68254249 218.0714412 -71.32279849 212.59091427 -69.3203125 206.921875 C-69.06627655 206.18857971 -68.8122406 205.45528442 -68.55050659 204.69976807 C-67.74668547 202.38151874 -66.93632062 200.06563418 -66.125 197.75 C-65.06208187 194.7041698 -64.00223866 191.65728959 -62.9453125 188.609375 C-62.68939835 187.87168884 -62.43348419 187.13400269 -62.16981506 186.3739624 C-59.95905009 179.96165898 -57.95774794 173.49370655 -56 167 C-55.28941834 164.7430424 -54.55623826 162.49639311 -53.8125 160.25 C-53.48894531 159.26515625 -53.16539062 158.2803125 -52.83203125 157.265625 C-52 155 -52 155 -51 154 C-49.14630389 153.91262355 -47.28932459 153.89301847 -45.43359375 153.90234375 C-44.30888672 153.90556641 -43.18417969 153.90878906 -42.02539062 153.91210938 C-40.84138672 153.92048828 -39.65738281 153.92886719 -38.4375 153.9375 C-37.24962891 153.94201172 -36.06175781 153.94652344 -34.83789062 153.95117188 C-31.89187774 153.96300325 -28.94596319 153.97948713 -26 154 C-27.05733889 150.31100098 -28.12172477 146.62406989 -29.1875 142.9375 C-29.50195068 141.84236084 -29.81640137 140.74722168 -30.14038086 139.61889648 C-31.72863367 134.14251044 -33.39858789 128.74740931 -35.3840332 123.40258789 C-38.45895677 115.0630057 -38.03961556 110.61083306 -34.53125 102.6796875 C-33.07371019 99.1771301 -32.00603208 95.77972591 -31 92.125 C-28.40258145 82.97183429 -25.38816498 73.95996444 -22.375 64.9375 C-22.13330078 64.21185852 -21.89160156 63.48621704 -21.64257812 62.73858643 C-17.19020896 49.38261011 -17.19020896 49.38261011 -14.75585938 43.04272461 C-12.89455022 38.01250054 -11.25331941 32.90189464 -9.5625 27.8125 C-9.18029297 26.66974609 -8.79808594 25.52699219 -8.40429688 24.34960938 C-6.09568942 17.41594792 -3.89648743 10.4603682 -1.81225586 3.45581055 C-1 1 -1 1 0 0 Z " fill="#EF8D27" transform="translate(644,379)"/>
<path d="M0 0 C24.42 0 48.84 0 74 0 C72.28284923 6.29621949 70.62443032 12.37419615 68.546875 18.51953125 C68.32578568 19.17732574 68.10469635 19.83512024 67.87690735 20.5128479 C67.40988059 21.90181208 66.94154945 23.29033832 66.47195435 24.67843628 C65.23916095 28.32251665 64.01555537 31.96967207 62.79296875 35.6171875 C62.43053322 36.69796822 62.43053322 36.69796822 62.06077576 37.80058289 C59.71028575 44.82959806 57.46149821 51.88988034 55.28222656 58.97387695 C54.06051536 62.8941326 52.74112135 66.71476557 51.17578125 70.51171875 C48.12133877 78.00000591 45.66706707 85.70170524 43.125 93.375 C42.85854675 94.17546753 42.59209351 94.97593506 42.31756592 95.80065918 C39.0265268 105.68985209 35.84770242 115.5943778 32.94140625 125.60449219 C31.35092377 131.01824986 29.44809355 136.2465984 27.39135742 141.49829102 C24.48375427 149.07536748 22.24307083 156.86068468 19.89990234 164.6262207 C17.87510601 171.29048412 15.68340279 177.76470904 13.07421875 184.22265625 C11.52113332 188.23808803 10.33257163 192.34536982 9.1015625 196.46875 C7.81269686 200.60043276 6.38964549 204.67342025 4.9375 208.75 C4.67606201 209.48484619 4.41462402 210.21969238 4.14526367 210.97680664 C3.64675634 212.37672448 3.1479909 213.77655044 2.64892578 215.17626953 C0.55968679 221.04783285 -1.26847478 226.93158684 -2.9375 232.9375 C-4.3145979 237.8171035 -5.9043697 242.43660051 -7.86328125 247.10546875 C-10.2654856 253.22242209 -12.21879141 259.50896731 -14.26049805 265.75366211 C-15.02361077 268.07172094 -15.80479489 270.38327527 -16.5859375 272.6953125 C-17.9991865 276.92679219 -19.15012678 281.19795402 -20.25390625 285.51953125 C-21 288 -21 288 -23 292 C-32.57 292 -42.14 292 -52 292 C-52.22764607 275.45503362 -52.41103205 258.91144893 -52.51812172 242.36534023 C-52.56921493 234.67893489 -52.63857911 226.9935867 -52.75439453 219.30786133 C-52.85554625 212.59191909 -52.91892184 205.87674351 -52.94088495 199.16006047 C-52.95368095 195.61850381 -52.98268303 192.0791359 -53.05730057 188.53829765 C-53.46532103 168.37112229 -50.23878512 152.26723608 -43.27794743 133.55076885 C-41.17380412 127.70441996 -39.40634409 121.76414046 -37.625 115.8125 C-34.33170865 105.07628386 -30.86722518 94.40203399 -27.3125 83.75 C-27.06474823 83.00759064 -26.81699646 82.26518127 -26.56173706 81.50027466 C-23.54135371 72.46395469 -20.47195756 63.44515675 -17.3671875 54.4375 C-17.06042587 53.54573059 -16.75366425 52.65396118 -16.43760681 51.73516846 C-14.96021086 47.44033983 -13.4779371 43.14737751 -11.98364258 38.85839844 C-7.54282607 25.98218662 -3.82802805 13.1246676 0 0 Z " fill="#0FC0DA" transform="translate(561,366)"/>
<path d="M0 0 C-2.62864261 1.75242841 -4.99723282 2.81129672 -7.93579102 3.90087891 C-33.29690148 13.37098512 -50.60750165 31.08038544 -62.5078125 55.03515625 C-68.66393591 68.72976611 -69.44414572 82.47342276 -69.38768005 97.21716309 C-69.39186165 99.01371005 -69.39734366 100.81025438 -69.40399987 102.60679388 C-69.41836454 107.50368252 -69.41423807 112.40040158 -69.40683305 117.29729915 C-69.40208139 122.59391119 -69.41462872 127.89048759 -69.42485046 133.18708801 C-69.44200388 143.54739993 -69.44288578 153.90765111 -69.43763756 164.26797354 C-69.43358873 172.69140654 -69.43504787 181.11482164 -69.44038582 189.53825378 C-69.44113424 190.73917273 -69.44188266 191.94009168 -69.44265376 193.17740211 C-69.44418531 195.61738813 -69.44572365 198.05737415 -69.44726873 200.49736017 C-69.46098088 223.35298986 -69.45556477 246.20858527 -69.44408352 269.06421417 C-69.43414911 289.9562079 -69.44709773 310.84811309 -69.47101771 331.74009317 C-69.49542079 353.21653536 -69.50501381 374.69293633 -69.49836498 396.16939211 C-69.4948759 408.21705482 -69.49708456 420.26464943 -69.51461601 432.31230164 C-69.52935293 442.56625269 -69.52995371 452.82008766 -69.5125451 463.07403648 C-69.50404573 468.30125952 -69.50185975 473.52827532 -69.51719666 478.75548744 C-69.53108484 483.54840454 -69.52622767 488.34093763 -69.50695742 493.13383275 C-69.50320981 494.85974912 -69.50608329 496.58569655 -69.51656907 498.31158513 C-69.57809276 509.22101009 -68.39436869 518.5876301 -65 529 C-64.74506427 529.78618918 -64.49012854 530.57237836 -64.22746748 531.38239145 C-59.60498686 544.7331367 -52.11186483 555.31783647 -43 566 C-43.99 566 -44.98 566 -46 566 C-46 565.34 -46 564.68 -46 564 C-46.66 564 -47.32 564 -48 564 C-48 563.34 -48 562.68 -48 562 C-48.99 561.67 -49.98 561.34 -51 561 C-60.76788025 550.06422103 -70.17086481 533.19680792 -70.25 518.1875 C-70.1675 517.135625 -70.085 516.08375 -70 515 C-70.66 515 -71.32 515 -72 515 C-72.02286385 459.4731996 -72.04049694 403.94639966 -72.05106533 348.41959548 C-72.05231611 341.87160857 -72.05361043 335.32362167 -72.05493164 328.77563477 C-72.05519395 327.47198904 -72.05545626 326.16834331 -72.05572652 324.82519316 C-72.06008378 303.6867923 -72.06797163 282.54839415 -72.0771528 261.40999491 C-72.08648779 239.73748242 -72.09205528 218.06497136 -72.09408849 196.39245695 C-72.09546404 183.00773605 -72.09981635 169.6230228 -72.10791647 156.23830425 C-72.11318203 147.07335944 -72.11480473 137.90841862 -72.11350138 128.7434724 C-72.1128577 123.44727138 -72.11387886 118.15108377 -72.11920547 112.8548851 C-72.12403818 108.01473612 -72.12433951 103.17460969 -72.12089889 98.33445971 C-72.12047307 96.57536831 -72.12176989 94.81627555 -72.12488318 93.05718685 C-72.12884508 90.68217005 -72.12676471 88.30723668 -72.12304783 85.93222141 C-72.12567484 85.23535381 -72.12830186 84.53848622 -72.13100848 83.82050142 C-72.1141458 79.1141458 -72.1141458 79.1141458 -71 78 C-70.60056824 75.47804033 -70.24920152 72.97036344 -69.9375 70.4375 C-69.84662109 69.72658203 -69.75574219 69.01566406 -69.66210938 68.28320312 C-69.43760497 66.52261597 -69.21831603 64.76136522 -69 63 C-68.34 63 -67.68 63 -67 63 C-66.90074219 61.98679687 -66.80148438 60.97359375 -66.69921875 59.9296875 C-65.06582897 50.74985445 -59.06490669 40.09763074 -53 33 C-52.34 33 -51.68 33 -51 33 C-50.67 32.01 -50.34 31.02 -50 30 C-49.34 30 -48.68 30 -48 30 C-48 29.01 -48 28.02 -48 27 C-47.34 27 -46.68 27 -46 27 C-46 26.34 -46 25.68 -46 25 C-44.625 23.375 -44.625 23.375 -43 22 C-42.34 22 -41.68 22 -41 22 C-41 21.34 -41 20.68 -41 20 C-39.68 19.67 -38.36 19.34 -37 19 C-37 18.34 -37 17.68 -37 17 C-36.34 17 -35.68 17 -35 17 C-35 16.34 -35 15.68 -35 15 C-32.84108302 13.46885321 -30.71004986 12.0948476 -28.4375 10.75 C-27.76799316 10.35176025 -27.09848633 9.95352051 -26.40869141 9.54321289 C-8.80391735 -0.64783543 -8.80391735 -0.64783543 0 0 Z " fill="#C1C0C0" transform="translate(284,216)"/>
<path d="M0 0 C1.12424157 0.16238096 2.24848314 0.32476192 3.40679264 0.49206352 C11.07114747 1.33462187 18.79137459 1.13776432 26.49131775 1.12698364 C28.282122 1.12813664 30.07292601 1.12972537 31.86372954 1.13171089 C36.77237872 1.13587966 41.68100842 1.13382458 46.58965766 1.13072467 C51.8883101 1.1284608 57.18695919 1.13195512 62.48561096 1.13470459 C72.86109534 1.13915077 83.23657248 1.1381909 93.61205714 1.13529195 C102.04520568 1.13303328 110.47835218 1.13272741 118.91150093 1.13381577 C120.71210114 1.13404561 120.71210114 1.13404561 122.54907711 1.13428011 C124.98770399 1.13459983 127.42633088 1.13492405 129.86495776 1.1352527 C152.73136784 1.13810415 175.59777391 1.13482578 198.46418334 1.12945233 C218.08118608 1.12498517 237.69818291 1.12576016 257.31518555 1.13037109 C280.09840653 1.13572374 302.881624 1.13782889 325.66484553 1.13475883 C328.09479145 1.13444028 330.52473738 1.13412591 332.9546833 1.13381577 C334.74802607 1.13358435 334.74802607 1.13358435 336.57759799 1.13334826 C344.99931827 1.13248514 353.42103633 1.1339416 361.84275627 1.13629532 C372.10793848 1.13910119 382.37311305 1.13833841 392.63829439 1.13301457 C397.87491411 1.13038814 403.11152109 1.12935461 408.34814072 1.13266373 C413.14399318 1.13564846 417.93982111 1.13399759 422.73567135 1.12868617 C424.46840838 1.12757128 426.2011475 1.12813256 427.93388318 1.13056196 C436.3480965 1.14145208 444.63591926 1.05560679 453 0 C452.67 0.66 452.34 1.32 452 2 C449.67284 2.37400786 447.33882138 2.70764733 445 3 C444.67 3.33 444.34 3.66 444 4 C441.7098328 4.10001362 439.41650281 4.12740473 437.12415314 4.12863445 C436.39294148 4.13038749 435.66172983 4.13214053 434.90836024 4.13394669 C432.42688491 4.13864573 429.94546717 4.13613123 427.46398926 4.13371277 C425.67937659 4.1355788 423.89476433 4.13787867 422.11015272 4.14057809 C417.18149993 4.1467286 412.25286402 4.14655869 407.32420826 4.14538372 C402.01793465 4.14518051 396.71166657 4.15069084 391.40539551 4.15544128 C380.99840381 4.16376707 370.59141778 4.16649703 360.18442303 4.16705366 C351.72580736 4.16752808 343.26719357 4.16957911 334.80857849 4.17275429 C310.84358933 4.18156749 286.87860465 4.18617283 262.91361386 4.18542381 C261.62018769 4.18538386 260.32676152 4.1853439 258.99414062 4.18530273 C257.69914011 4.18526185 256.40413959 4.18522097 255.06989664 4.18517885 C234.09215423 4.18477259 213.11442979 4.19433549 192.13669258 4.2084411 C170.61326999 4.22279971 149.08985616 4.22971151 127.56642866 4.22884732 C115.47628999 4.22851509 103.38617013 4.23127348 91.29603577 4.24202538 C80.99878543 4.25112378 70.70156242 4.25331119 60.40430981 4.24651595 C55.14962734 4.24324692 49.89499733 4.24320782 44.64031982 4.2518692 C39.82875703 4.25971856 35.01728844 4.25831872 30.20572799 4.24958507 C28.46603954 4.24804659 26.72634411 4.24987932 24.98666388 4.25544515 C8.20115451 4.30558549 8.20115451 4.30558549 1 2 C0.67 1.34 0.34 0.68 0 0 Z " fill="#C5C5C4" transform="translate(285,808)"/>
<path d="M0 0 C5.96202713 -0.44163164 9.96418352 0.48307745 15.41015625 2.9296875 C18.08054881 4.10178267 18.08054881 4.10178267 21.34375 4.875 C25.45277148 6.1393143 28.77087711 7.92890629 32.4375 10.125 C33.39172852 10.68380859 33.39172852 10.68380859 34.36523438 11.25390625 C35.91423889 12.16234499 37.45771891 13.08019297 39 14 C39 14.66 39 15.32 39 16 C39.721875 16.2475 40.44375 16.495 41.1875 16.75 C44.27606582 18.12269592 46.51011418 19.72353296 49 22 C49 22.66 49 23.32 49 24 C49.99 24.33 50.98 24.66 52 25 C52 25.66 52 26.32 52 27 C52.99 27.33 53.98 27.66 55 28 C55 28.66 55 29.32 55 30 C55.66 30 56.32 30 57 30 C73.09200882 46.96323223 79.47937748 69.23432299 79.39872742 91.9659729 C79.40417814 93.54284945 79.41093435 95.11972192 79.41886932 96.69658792 C79.43678148 100.99665739 79.4363513 105.29655316 79.43273985 109.59665108 C79.43211297 114.2489865 79.44876726 118.90126516 79.46325684 123.55357361 C79.48601226 131.61272228 79.49792364 139.67182785 79.50238609 147.73100662 C79.50887764 159.42984878 79.53187613 171.12861401 79.55872939 182.82742505 C79.60199368 201.87256933 79.63194938 220.91771038 79.65356445 239.96289062 C79.67446105 258.35060277 79.70167846 276.73828727 79.73754883 295.12597656 C79.73974765 296.25421611 79.74194648 297.38245566 79.74421193 298.54488428 C79.75529215 304.21148331 79.76648851 309.87808211 79.77772844 315.54468083 C79.84661189 350.37258704 79.90674928 385.20050175 79.95217168 420.02844667 C79.95570714 422.72057703 79.95934051 425.41270723 79.96299934 428.10483742 C79.96529491 429.81483077 79.96758319 431.52482413 79.96986389 433.2348175 C79.97098578 434.0700311 79.97210766 434.9052447 79.97326354 435.7657678 C79.97859009 439.87104585 79.98299643 443.97632155 79.98551881 448.08160233 C79.98655851 449.70328284 79.98761351 451.32496334 79.9886837 452.94664383 C79.98920204 453.75175892 79.98972038 454.55687401 79.99025442 455.38638653 C79.99489852 460.78726346 80.00922016 466.18805469 80.02810797 471.5888998 C80.04095398 475.47633043 80.04967416 479.36376502 80.05783967 483.25120799 C80.06269668 485.09910276 80.06934009 486.94699392 80.07798292 488.79487486 C80.21476426 518.51847658 80.21476426 518.51847658 77 526 C76.6186926 528.32597511 76.27539746 530.65912158 76 533 C75.34 533 74.68 533 74 533 C74.4153207 528.63913269 74.81809948 524.64574936 76.00916481 520.4174509 C77.68025126 512.89820755 77.28254784 505.13449141 77.26742554 497.47312927 C77.27116477 495.67834996 77.27576737 493.88357227 77.28115618 492.08879715 C77.29336813 487.16891618 77.29312783 482.2491033 77.29076743 477.32921064 C77.2903588 472.01816411 77.30140291 466.70713928 77.31088257 461.39610291 C77.32748429 450.99454044 77.33299177 440.59300064 77.33410732 430.19142603 C77.33505831 421.73353614 77.33917114 413.27565372 77.34550858 404.81776619 C77.3631197 380.82482396 77.37234779 356.83189961 77.37084763 332.83895086 C77.37072776 330.89939406 77.37072776 330.89939406 77.37060547 328.9206543 C77.37048283 326.97872196 77.37048283 326.97872196 77.37035771 324.99755866 C77.36954513 304.02503064 77.38867614 283.0525745 77.4168822 262.08006727 C77.44563219 240.53262351 77.45942129 218.98521477 77.45769465 197.43775135 C77.45703142 185.34580866 77.46249425 173.2539413 77.48405075 161.16201591 C77.50229047 150.86476862 77.50658703 140.56763078 77.4930319 130.27037429 C77.48651603 125.02078719 77.48633506 119.77140991 77.5037384 114.52184296 C77.51953554 109.70705324 77.51653803 104.89263856 77.49917014 100.07785762 C77.49611478 98.34501189 77.49967676 96.6121377 77.51089029 94.87932556 C77.66775427 68.89848209 68.66785461 46.41418586 50.67578125 27.5546875 C35.98589956 13.52960338 19.31193878 6.54168678 0 1 C0 0.67 0 0.34 0 0 Z " fill="#B8B9B9" transform="translate(732,214)"/>
<path d="M0 0 C5.96202713 -0.44163164 9.96418352 0.48307745 15.41015625 2.9296875 C18.08054881 4.10178267 18.08054881 4.10178267 21.34375 4.875 C25.45277148 6.1393143 28.77087711 7.92890629 32.4375 10.125 C33.39172852 10.68380859 33.39172852 10.68380859 34.36523438 11.25390625 C35.91423889 12.16234499 37.45771891 13.08019297 39 14 C39 14.66 39 15.32 39 16 C39.721875 16.2475 40.44375 16.495 41.1875 16.75 C44.27606582 18.12269592 46.51011418 19.72353296 49 22 C49 22.66 49 23.32 49 24 C49.99 24.33 50.98 24.66 52 25 C52 25.66 52 26.32 52 27 C52.99 27.33 53.98 27.66 55 28 C55 28.66 55 29.32 55 30 C55.66 30 56.32 30 57 30 C69.92880722 43.62877449 79.1432946 64.00310327 79.1875 82.8125 C79.14051059 84.54215766 79.08407712 86.27174809 79 88 C78.67 88 78.34 88 78 88 C77.83564453 86.80117188 77.83564453 86.80117188 77.66796875 85.578125 C73.73807583 58.3564277 62.56554591 35.44910058 40.22583008 18.56616211 C27.99868755 9.774105 14.3557133 5.11946556 0 1 C0 0.67 0 0.34 0 0 Z " fill="#EDEBEA" transform="translate(732,214)"/>
<path d="M0 0 C-2.62864261 1.75242841 -4.99723282 2.81129672 -7.93579102 3.90087891 C-33.29690148 13.37098512 -50.60750165 31.08038544 -62.5078125 55.03515625 C-66.00399888 62.8126008 -67.59388882 70.63192374 -69 79 C-69.33 79 -69.66 79 -70 79 C-70.09688221 73.55306686 -70.12862175 68.36095333 -69 63 C-68.34 63 -67.68 63 -67 63 C-66.90074219 61.98679687 -66.80148438 60.97359375 -66.69921875 59.9296875 C-65.06582897 50.74985445 -59.06490669 40.09763074 -53 33 C-52.34 33 -51.68 33 -51 33 C-50.67 32.01 -50.34 31.02 -50 30 C-49.34 30 -48.68 30 -48 30 C-48 29.01 -48 28.02 -48 27 C-47.34 27 -46.68 27 -46 27 C-46 26.34 -46 25.68 -46 25 C-44.625 23.375 -44.625 23.375 -43 22 C-42.34 22 -41.68 22 -41 22 C-41 21.34 -41 20.68 -41 20 C-39.68 19.67 -38.36 19.34 -37 19 C-37 18.34 -37 17.68 -37 17 C-36.34 17 -35.68 17 -35 17 C-35 16.34 -35 15.68 -35 15 C-32.84108302 13.46885321 -30.71004986 12.0948476 -28.4375 10.75 C-27.76799316 10.35176025 -27.09848633 9.95352051 -26.40869141 9.54321289 C-8.80391735 -0.64783543 -8.80391735 -0.64783543 0 0 Z " fill="#E6E6E7" transform="translate(284,216)"/>
<path d="M0 0 C1.37095624 3.69037278 0.60010967 5.70883835 -0.9375 9.25 C-1.31777344 10.14203125 -1.69804688 11.0340625 -2.08984375 11.953125 C-2.39019531 12.62859375 -2.69054687 13.3040625 -3 14 C-3.66 14 -4.32 14 -5 14 C-5 14.99 -5 15.98 -5 17 C-5.66 17 -6.32 17 -7 17 C-7.495 19.475 -7.495 19.475 -8 22 C-8.66 22 -9.32 22 -10 22 C-10.26941406 22.73734375 -10.53882813 23.4746875 -10.81640625 24.234375 C-14.67498444 33.2504587 -22.36213061 39.2375471 -30 45 C-30.90878906 45.68835938 -31.81757812 46.37671875 -32.75390625 47.0859375 C-36.86713473 50.08963639 -39.87455302 52.2755552 -45 53 C-45 53.66 -45 54.32 -45 55 C-47.55885226 56.01031065 -50.12140376 57.00840145 -52.6875 58 C-53.7693457 58.42925781 -53.7693457 58.42925781 -54.87304688 58.8671875 C-58.71040321 60.3390502 -61.81566589 61.39614998 -66 61 C-62.92584746 59.3923437 -59.76464628 58.03953456 -56.56933594 56.69238281 C-43.0971113 50.96398527 -32.45092188 44.192311 -22 34 C-21.33097656 33.40445313 -20.66195312 32.80890625 -19.97265625 32.1953125 C-10.67851289 23.72310019 -5.36270193 11.17788183 0 0 Z " fill="#DDDDDD" transform="translate(805,747)"/>
<path d="M0 0 C1.61515138 2.85334818 2.24948999 4.89094956 2.24291992 8.16333008 C2.24599655 8.97550491 2.24907318 9.78767975 2.25224304 10.62446594 C2.24505753 11.49733749 2.23787201 12.37020905 2.23046875 13.26953125 C2.23001053 14.18272629 2.22955231 15.09592133 2.2290802 16.03678894 C2.22605932 17.97432754 2.21817792 19.91186375 2.20581055 21.84936523 C2.18780217 24.76360044 2.18529942 27.67751236 2.18554688 30.59179688 C2.1335885 59.68319699 2.1335885 59.68319699 -1 67 C-1.3813074 69.32597511 -1.72460254 71.65912158 -2 74 C-2.66 74 -3.32 74 -4 74 C-3.57728264 69.56146771 -3.12184898 65.47002293 -2 61.14257812 C-0.64473466 55.07971145 -0.64660826 49.06085981 -0.5859375 42.87109375 C-0.56657135 41.64084976 -0.5472052 40.41060577 -0.5272522 39.14308167 C-0.46781398 35.24129006 -0.42121417 31.33946839 -0.375 27.4375 C-0.33783162 24.78056798 -0.2977338 22.12369014 -0.2578125 19.46679688 C-0.16214195 12.97797125 -0.07699119 6.48907271 0 0 Z " fill="#D7D7D7" transform="translate(810,673)"/>
<path d="M0 0 C0.33 0 0.66 0 1 0 C1.10957031 0.72703125 1.21914062 1.4540625 1.33203125 2.203125 C4.99099543 25.40631248 12.71106163 43.07623325 28 61 C27.01 61 26.02 61 25 61 C25 60.34 25 59.68 25 59 C24.34 59 23.68 59 23 59 C23 58.34 23 57.68 23 57 C21.515 56.505 21.515 56.505 20 56 C10.23211975 45.06422103 0.82913519 28.19680792 0.75 13.1875 C0.8325 12.135625 0.915 11.08375 1 10 C0.34 10 -0.32 10 -1 10 C-0.67 6.7 -0.34 3.4 0 0 Z " fill="#E5E2E2" transform="translate(213,721)"/>
<path d="M0 0 C18.81 0 37.62 0 57 0 C56.67 0.66 56.34 1.32 56 2 C28.775 2.495 28.775 2.495 1 3 C0.67 2.01 0.34 1.02 0 0 Z " fill="#B9D94F" transform="translate(379,477)"/>
<path d="M0 0 C5.96202713 -0.44163164 9.96418352 0.48307745 15.41015625 2.9296875 C18.08054881 4.10178267 18.08054881 4.10178267 21.34375 4.875 C25.45277148 6.1393143 28.77087711 7.92890629 32.4375 10.125 C33.39172852 10.68380859 33.39172852 10.68380859 34.36523438 11.25390625 C35.91423889 12.16234499 37.45771891 13.08019297 39 14 C39 14.66 39 15.32 39 16 C39.7425 16.226875 40.485 16.45375 41.25 16.6875 C44.51139591 18.24407532 45.92894975 20.08518854 48 23 C44.18515427 23 43.60884649 22.00275417 40.8125 19.5 C28.87690262 9.73764723 14.62229415 5.19596267 0 1 C0 0.67 0 0.34 0 0 Z " fill="#E7E6E5" transform="translate(732,214)"/>
<path d="M0 0 C3.50907145 2.24940478 6.77137263 4.61278475 10 7.25 C20.43113916 15.37861346 31.38893923 20.32618958 44 24 C44 24.33 44 24.66 44 25 C40.7 24.67 37.4 24.34 34 24 C34 23.34 34 22.68 34 22 C33.05125 21.95875 32.1025 21.9175 31.125 21.875 C25.69337013 21.09748847 21.49993051 17.96102298 17 15 C16.18660156 14.47535156 15.37320312 13.95070313 14.53515625 13.41015625 C6.47832347 8.14171152 6.47832347 8.14171152 3 5 C3 4.34 3 3.68 3 3 C2.01 2.67 1.02 2.34 0 2 C0 1.34 0 0.68 0 0 Z " fill="#E9E6E4" transform="translate(241,783)"/>
<path d="M0 0 C1.37095624 3.69037278 0.60010967 5.70883835 -0.9375 9.25 C-1.31777344 10.14203125 -1.69804688 11.0340625 -2.08984375 11.953125 C-2.39019531 12.62859375 -2.69054687 13.3040625 -3 14 C-3.66 14 -4.32 14 -5 14 C-5 14.99 -5 15.98 -5 17 C-5.66 17 -6.32 17 -7 17 C-7.33 18.65 -7.66 20.3 -8 22 C-9.32 22.33 -10.64 22.66 -12 23 C-11.46890625 22.01 -10.9378125 21.02 -10.390625 20 C-6.84223148 13.37359311 -3.3068022 6.75138783 0 0 Z " fill="#CFCECD" transform="translate(805,747)"/>
<path d="M0 0 C0.33 0.66 0.66 1.32 1 2 C1.99 2.33 2.98 2.66 4 3 C4 3.66 4 4.32 4 5 C4.99 5.33 5.98 5.66 7 6 C7 6.66 7 7.32 7 8 C7.66 8 8.32 8 9 8 C10.54296875 9.609375 10.54296875 9.609375 12.1875 11.75 C12.73792969 12.44609375 13.28835938 13.1421875 13.85546875 13.859375 C15 16 15 16 14.67578125 18.265625 C14.34126953 19.12414062 14.34126953 19.12414062 14 20 C13.67128906 19.53851563 13.34257813 19.07703125 13.00390625 18.6015625 C8.71126974 12.71518289 3.93572191 7.3525162 -1 2 C-0.67 1.34 -0.34 0.68 0 0 Z " fill="#F3F3F2" transform="translate(780,236)"/>
<path d="M0 0 C0.33 0 0.66 0 1 0 C1.16435547 1.05574219 1.16435547 1.05574219 1.33203125 2.1328125 C2.61972345 10.1520989 4.24076301 18.0717053 6 26 C2.09375 23.2734375 2.09375 23.2734375 1.25 20.8125 C0.92773012 17.1869639 0.93830587 13.63995356 1 10 C0.34 10 -0.32 10 -1 10 C-0.67 6.7 -0.34 3.4 0 0 Z " fill="#E0DFDE" transform="translate(213,721)"/>
<path d="M0 0 C0.33 0 0.66 0 1 0 C1.05441656 1.89551022 1.09298035 3.7914792 1.125 5.6875 C1.14820313 6.74324219 1.17140625 7.79898438 1.1953125 8.88671875 C0.99643451 12.05683393 0.26767071 14.1189302 -1 17 C-1.3813074 19.32597511 -1.72460254 21.65912158 -2 24 C-2.66 24 -3.32 24 -4 24 C-3.28621973 15.86290495 -1.67226118 7.98268072 0 0 Z " fill="#E5E4E2" transform="translate(810,723)"/>
<path d="M0 0 C6.75923474 -0.50068405 11.99272183 0.80963379 18 4 C19.79296875 5.63671875 19.79296875 5.63671875 21 7 C13.96354423 5.11380178 6.96640656 3.13072305 0 1 C0 0.67 0 0.34 0 0 Z " fill="#D8D7D7" transform="translate(732,214)"/>
<path d="M0 0 C3.53223291 1.17741097 4.23758581 2.26244705 6.4375 5.1875 C7.0459375 5.99445312 7.654375 6.80140625 8.28125 7.6328125 C10.27243568 10.37521823 12.1712091 13.14708619 14 16 C13.01 15.67 12.02 15.34 11 15 C11 14.34 11 13.68 11 13 C10.34 13 9.68 13 9 13 C9 12.34 9 11.68 9 11 C8.01 10.67 7.02 10.34 6 10 C4.39453125 7.96875 4.39453125 7.96875 2.8125 5.5 C2.28269531 4.6853125 1.75289062 3.870625 1.20703125 3.03125 C0 1 0 1 0 0 Z " fill="#EBE8E8" transform="translate(227,767)"/>
<path d="M0 0 C0.33 0 0.66 0 1 0 C0.48914188 6.43681228 -0.72942897 11.95942424 -3 18 C-3.66 18 -4.32 18 -5 18 C-5 16.02 -5 14.04 -5 12 C-4.34 12 -3.68 12 -3 12 C-2.87625 11.13375 -2.7525 10.2675 -2.625 9.375 C-2.01941879 6.10486147 -1.11693965 3.12743101 0 0 Z " fill="#11CEE7" transform="translate(551,610)"/>
<path d="M0 0 C0.66 0 1.32 0 2 0 C1.50269348 4.97306516 0.44697666 8.63799813 -2 13 C-2.33 13 -2.66 13 -3 13 C-2.45144652 8.428721 -1.58255197 4.32564205 0 0 Z " fill="#0DC9E2" transform="translate(629,376)"/>
<path d="M0 0 C-1.43648264 1.12629875 -2.87422585 2.2509899 -4.3125 3.375 C-5.11300781 4.00148437 -5.91351563 4.62796875 -6.73828125 5.2734375 C-8.44663212 6.57756718 -10.21172726 7.80781817 -12 9 C-11.67 7.68 -11.34 6.36 -11 5 C-10.34 5 -9.68 5 -9 5 C-9 4.34 -9 3.68 -9 3 C-8.34 3 -7.68 3 -7 3 C-7 2.34 -7 1.68 -7 1 C-3.375 -1.125 -3.375 -1.125 0 0 Z " fill="#DBDCDE" transform="translate(256,230)"/>
<path d="M0 0 C0.66 0.66 1.32 1.32 2 2 C1.8125 4.0625 1.8125 4.0625 1 6 C0.01 6.33 -0.98 6.66 -2 7 C-2.73323796 9.01508358 -2.73323796 9.01508358 -3 11 C-3.33 10.34 -3.66 9.68 -4 9 C-3.22265625 6.8359375 -3.22265625 6.8359375 -2.0625 4.375 C-1.68222656 3.55773437 -1.30195312 2.74046875 -0.91015625 1.8984375 C-0.60980469 1.27195312 -0.30945313 0.64546875 0 0 Z " fill="#C56F23" transform="translate(644,379)"/>
<path d="M0 0 C-1.93139795 1.93139795 -5.39609481 1.64084066 -8 2 C-8.99 2.33 -9.98 2.66 -11 3 C-13.6875 2.5625 -13.6875 2.5625 -16 2 C-16 1.67 -16 1.34 -16 1 C-13.8973294 0.63705686 -11.79278943 0.28493028 -9.6875 -0.0625 C-8.51574219 -0.25972656 -7.34398437 -0.45695313 -6.13671875 -0.66015625 C-3 -1 -3 -1 0 0 Z " fill="#DADAD9" transform="translate(738,809)"/>
<path d="M0 0 C0.66 0 1.32 0 2 0 C2.66 1.65 3.32 3.3 4 5 C1.36 5 -1.28 5 -4 5 C-2.71937515 3.2925002 -1.38232443 1.62626404 0 0 Z " fill="#004D90" transform="translate(413,547)"/>
<path d="M0 0 C0.66 0.33 1.32 0.66 2 1 C1.75 4.3125 1.75 4.3125 1 8 C-0.32 8.99 -1.64 9.98 -3 11 C-2.01 7.37 -1.02 3.74 0 0 Z " fill="#C8731F" transform="translate(610,479)"/>
<path d="M0 0 C1 4 1 4 0 7 C0.66 7.33 1.32 7.66 2 8 C1.01 9.32 0.02 10.64 -1 12 C-1.66 11.67 -2.32 11.34 -3 11 C-2.01 7.37 -1.02 3.74 0 0 Z " fill="#0B96B0" transform="translate(560,370)"/>
<path d="M0 0 C0.33 0 0.66 0 1 0 C1.36923077 7.50769231 1.36923077 7.50769231 -0.5 10 C-0.995 10.33 -1.49 10.66 -2 11 C-3 9 -3 9 -2.44140625 6.8359375 C-2.15136719 6.02382813 -1.86132812 5.21171875 -1.5625 4.375 C-1.27503906 3.55773437 -0.98757813 2.74046875 -0.69140625 1.8984375 C-0.46324219 1.27195312 -0.23507812 0.64546875 0 0 Z " fill="#CB7725" transform="translate(627,428)"/>
<path d="M0 0 C0.66 0 1.32 0 2 0 C1.71640113 1.4391134 1.42278601 2.87625518 1.125 4.3125 C0.88136719 5.51326172 0.88136719 5.51326172 0.6328125 6.73828125 C0 9 0 9 -2 12 C-2 9.69 -2 7.38 -2 5 C-1.34 5 -0.68 5 0 5 C-0.2784375 4.0409375 -0.2784375 4.0409375 -0.5625 3.0625 C-0.7790625 2.0415625 -0.7790625 2.0415625 -1 1 C-0.67 0.67 -0.34 0.34 0 0 Z " fill="#089CB2" transform="translate(615,420)"/>
<path d="M0 0 C0.8125 1.6875 0.8125 1.6875 1 4 C-1.4375 6.75 -1.4375 6.75 -4 9 C-3.47731534 6.23723823 -2.89130413 3.6739124 -2 1 C-1.34 0.67 -0.68 0.34 0 0 Z " fill="#F89331" transform="translate(644,385)"/>
<path d="M0 0 C2.83374881 3.20336822 3.5205537 5.78087253 4 10 C3.34 10 2.68 10 2 10 C0.39644899 6.49223216 -0.22036864 3.85645121 0 0 Z " fill="#F59631" transform="translate(655,648)"/>
<path d="M0 0 C0.66 0 1.32 0 2 0 C1.25 6.75 1.25 6.75 -1 9 C-0.67 6.03 -0.34 3.06 0 0 Z " fill="#0FB8CE" transform="translate(512,517)"/>
<path d="M0 0 C3.24208567 0.35049575 4.61527704 0.56221181 6.8125 3.0625 C7.204375 3.701875 7.59625 4.34125 8 5 C5 5 5 5 2.3125 2.5 C1.549375 1.675 0.78625 0.85 0 0 Z " fill="#DBD9D8" transform="translate(772,232)"/>
<path d="M0 0 C0.6875 1.625 0.6875 1.625 1 4 C-0.4375 7.25 -0.4375 7.25 -2 10 C-2.6875 8.375 -2.6875 8.375 -3 6 C-1.5625 2.75 -1.5625 2.75 0 0 Z " fill="#E2E1E1" transform="translate(805,747)"/>
<path d="M0 0 C2.64 0 5.28 0 8 0 C7.67 0.66 7.34 1.32 7 2 C3.9375 2.625 3.9375 2.625 1 3 C0.67 2.01 0.34 1.02 0 0 Z " fill="#B3D44C" transform="translate(379,477)"/>
</svg>
